# xmcd CD database file
#
# Track frame offsets:
#	150
#	18059
#	31044
#	44210
#	60102
#	79204
#	92966
#	110155
#	129192
#	147339
#	164279
#	177963
#	195898
#
# Disc length: 2816 seconds
#
# Revision: 0
# Processed by: cddbd v1.4b42PL1 Copyright (c) Steve Scherf et al.
# Submitted via: CDex 1.40Beta8
#
DISCID=a10afe0d
DTITLE=Rebel - Live At The Wildhorse Saloon
DYEAR=1999
DGENRE=Country
TTITLE0=The Break
TTITLE1=Pour Me
TTITLE2=Prove Me Right
TTITLE3=Listen Here
TTITLE4=Now Would Be The Time
TTITLE5=One In A Row
TTITLE6=Love Ain't Getting It Done
TTITLE7=Tic-Toc
TTITLE8=Christian Prays For Rain
TTITLE9=Gone Too Far
TTITLE10=Till A Tear Drops
TTITLE11=Cry Love
TTITLE12=Just What I Do
EXTD=YEAR: 1999 ID3G: 2
EXTT0=
EXTT1=
EXTT2=
EXTT3=
EXTT4=
EXTT5=
EXTT6=
EXTT7=
EXTT8=
EXTT9=
EXTT10=
EXTT11=
EXTT12=
PLAYORDER=
